<svg xmlns="http://www.w3.org/2000/svg" aria-hidden="true" style="position:absolute;width:0;height:0;overflow:hidden">
  <defs>
    <symbol id="icon-dribbble" viewBox="0 0 17 16">
  <mask id="mask0_globe" style="mask-type:luminance" maskUnits="userSpaceOnUse" x="1" y="0" width="15" height="16">
    <path d="M15.1668 7.99992C15.1679 8.87802 14.995 9.74763 14.6581 10.5585C14.3211 11.3694 13.8269 12.1055 13.2038 12.7243C12.5858 13.3411 11.8523 13.8301 11.0453 14.1634C10.2382 14.4967 9.37335 14.6677 8.50017 14.6666C4.81817 14.6666 1.8335 11.6819 1.8335 7.99992C1.8311 6.2905 2.48773 4.64594 3.66684 3.40826C4.28891 2.75174 5.03843 2.22909 5.86951 1.8723C6.70059 1.51551 7.59574 1.33209 8.50017 1.33326C9.37335 1.33218 10.2382 1.50316 11.0453 1.83644C11.8523 2.16971 12.5858 2.65874 13.2038 3.27559C13.8269 3.89435 14.3211 4.63044 14.6581 5.44133C14.995 6.25221 15.1679 7.12183 15.1668 7.99992Z" fill="white" stroke="white" stroke-width="1.33333" stroke-linecap="round" stroke-linejoin="round"/>
    <path d="M15.1666 7.99993C14.1939 7.99993 11.5106 7.63327 9.10893 8.6876C6.49993 9.83327 4.61093 11.6106 3.7876 12.7156" stroke="black" stroke-width="1.33333" stroke-linecap="round" stroke-linejoin="round"/>
    <path d="M6 1.81787C7.04333 2.78087 9.32 5.23254 10.1667 7.66654C11.0133 10.1005 11.3267 13.0932 11.52 13.9449" stroke="black" stroke-width="1.33333" stroke-linecap="round" stroke-linejoin="round"/>
    <path d="M1.88477 7.16649C3.1441 7.24249 6.47777 7.31083 8.6111 6.39983C10.7444 5.48883 12.5801 3.81316 13.2098 3.28149" stroke="black" stroke-width="1.33333" stroke-linecap="round" stroke-linejoin="round"/>
    <path d="M2.3335 10.5376C2.92103 11.9595 3.98047 13.1356 5.3335 13.8679M1.8335 7.99992C1.8311 6.2905 2.48773 4.64594 3.66684 3.40826C4.28891 2.75174 5.03843 2.22909 5.86951 1.8723C6.70059 1.51551 7.59574 1.33209 8.50017 1.33326M11.1668 1.88792C11.9262 2.21985 12.617 2.69045 13.2038 3.27559C13.8269 3.89435 14.3212 4.63044 14.6581 5.44133C14.995 6.25221 15.1679 7.12183 15.1668 7.99992C15.1668 8.82059 15.0185 9.60692 14.7468 10.3333M8.50017 14.6666C9.37335 14.6677 10.2382 14.4967 11.0453 14.1634C11.8523 13.8301 12.5858 13.3411 13.2038 12.7243" stroke="white" stroke-width="1.33333" stroke-linecap="round" stroke-linejoin="round"/>
  </mask>
  <g mask="url(#mask0_globe)">
    <path d="M0.5 0H16.5V16H0.5V0Z" fill="white"/>
  </g>
</symbol>
    <symbol id="icon-analytics" viewBox="0 0 32 32">
      <path fill="#0f8" d="M29 26a.997.997 0 0 1-1 1H4a.997.997 0 0 1-1-1V6a.997.997 0 0 1 1-1 .997.997 0 0 1 1 1v11.796l6.341-5.546a1.004 1.004 0 0 1 1.259-.048l7.351 5.514 7.39-6.466a1.004 1.004 0 0 1 .738-.289.993.993 0 0 1 .716.34.994.994 0 0 1 .244.754.997.997 0 0 1-.382.695l-8 7a1.004 1.004 0 0 1-1.259.048l-7.351-5.511-7.049 6.168v4.546h23a.997.997 0 0 1 1 1z" style="fill:var(--color2, #0f8)"/>
    </symbol>
    <symbol id="icon-behance" viewBox="0 0 32 32">
      <path fill="#fff" d="M10.1 14.866v-2.038c0-.121 0-.169.157-.169 1.35 0 2.447-.08 2.992.241.546.32.569.762.578.894s.005.321-.249.782-1.39.47-2.211.47h-1.086c-.133 0-.182-.048-.182-.18zm3.741 2.136c.126.16.216.346.263.544a1.435 1.435 0 0 1-.226 1.161 1.427 1.427 0 0 1-.448.406 2.16 2.16 0 0 1-.82.169h-2.34c-.121 0-.169 0-.169-.156v-2.413c0-.121 0-.169.157-.169h1.556c.965 0 1.568-.084 2.028.459z" style="fill:var(--color1, #fff)"/>
      <path fill="#fff" d="M22.336 15.884a1.104 1.104 0 0 0-.718-.632 2.329 2.329 0 0 0-1.894.299 1.816 1.816 0 0 0-.508 1.027c0 .136 0 .161.161.161h3.01c.149 0 .149 0 .136-.187a1.644 1.644 0 0 0-.185-.668zm0 0a1.103 1.103 0 0 0-.719-.632 2.329 2.329 0 0 0-1.894.299 1.817 1.817 0 0 0-.509 1.027c0 .136 0 .161.161.161h3.011c.149 0 .149 0 .136-.187a1.648 1.648 0 0 0-.188-.668zm1.41-11.948H8.889a4.949 4.949 0 0 0-4.952 4.952v14.857a4.95 4.95 0 0 0 4.952 4.953h14.857a4.953 4.953 0 0 0 4.952-4.953V8.888a4.95 4.95 0 0 0-4.952-4.952zm-4.853 7.886c0-.098 0-.136.112-.136h4.011v1.041s.004.074-.062.074h-3.887c-.174 0-.174 0-.174-.173v-.806zm-3.714 9.101c-1.524.829-4.085.495-7.119.495V11.154h4.841c1.238 0 2.711.31 3.107 1.622a2.477 2.477 0 0 1-1.238 3.059 2.81 2.81 0 0 1 .397 5.088h.013zm9.224-2.922h-4.952c-.136 0-.26.074-.236.248.149.73.483 1.498 1.239 1.61a1.865 1.865 0 0 0 2.141-.842s.062-.075.099-.075h1.61s.099 0 .074.086a4.45 4.45 0 0 1-.743 1.325 3.873 3.873 0 0 1-6.079-.954 3.156 3.156 0 0 1-.321-1.115 3.84 3.84 0 0 1 2.797-4.567c2.81-.607 4.593 1.324 4.593 4.048a.212.212 0 0 1-.059.176c-.023.023-.05.04-.081.05s-.063.014-.095.009h.013zm-2.774-2.749a2.28 2.28 0 0 0-.979-.053c-.326.051-.618.113-.916.352-.297.237-.455.639-.508 1.027 0 .136 0 .161.161.161h2.997c.149 0 .149 0 .136-.187a1.644 1.644 0 0 0-.185-.668 1.104 1.104 0 0 0-.718-.632h.013z" style="fill:var(--color1, #fff)"/>
    </symbol>
    <symbol id="icon-brand" viewBox="0 0 32 32">
      <path fill="#0f8" d="M30.414 17 18 4.586A1.977 1.977 0 0 0 16.586 4H5a.997.997 0 0 0-1 1v11.586A1.993 1.993 0 0 0 4.586 18L17 30.414a2.005 2.005 0 0 0 2.18.434 2 2 0 0 0 .649-.434l10.585-10.585a2.005 2.005 0 0 0 .434-2.18 1.989 1.989 0 0 0-.434-.649zm-12 12L6 16.586V6h10.586L29 18.414 18.414 29zM12 10.5a1.495 1.495 0 0 1-.926 1.385 1.496 1.496 0 0 1-1.635-.326 1.5 1.5 0 1 1 2.559-1.061z" style="fill:var(--color2, #0f8)"/>
    </symbol>
    <symbol id="icon-check" viewBox="0 0 32 32">
      <path fill="#0f8" d="M16 27.52A11.523 11.523 0 0 1 4.48 16 11.523 11.523 0 0 1 16 4.48a11.522 11.522 0 0 1 10.643 15.929 11.503 11.503 0 0 1-6.234 6.234A11.518 11.518 0 0 1 16 27.52zm-.297-6.861 6.4-7.68-1.966-1.638-5.504 6.604-2.848-2.849-1.81 1.81 4.831 4.831.897-1.076z" style="fill:var(--color2, #0f8)"/>
    </symbol>
    <symbol id="icon-close" viewBox="0 0 32 32">
      <path fill="#fff" d="m8.533 25.333-1.867-1.867 7.467-7.467-7.467-7.467 1.867-1.867L16 14.132l7.467-7.467 1.867 1.867-7.467 7.467 7.467 7.467-1.867 1.867L16 17.866l-7.467 7.467z" style="fill:var(--color1, #fff)"/>
    </symbol>
    <symbol id="icon-dev" viewBox="0 0 32 32">
      <path fill="#0f8" d="M10.844 5.537 4.185 16l6.659 10.462a1.004 1.004 0 0 1-.308 1.381 1.004 1.004 0 0 1-1.381-.307l-7-11a1 1 0 0 1 0-1.074l7-11a.996.996 0 0 1 1.381-.306.996.996 0 0 1 .306 1.381l.001.001zm19 9.927-7-11a1.002 1.002 0 0 0-1.82.321 1 1 0 0 0 .132.754l6.659 10.463-6.659 10.462a1.004 1.004 0 0 0 .308 1.381 1.004 1.004 0 0 0 1.381-.307l7-11a1.007 1.007 0 0 0-.002-1.072z" style="fill:var(--color2, #0f8)"/>
    </symbol>
    <symbol id="icon-e-commerce" viewBox="0 0 32 32">
      <path fill="#0f8" d="M17 15v7a.997.997 0 0 1-1 1 .997.997 0 0 1-1-1v-7a.997.997 0 0 1 1-1 .997.997 0 0 1 1 1zm4.605-.1-.7 7a.989.989 0 0 0 .219.736.995.995 0 0 0 .676.363.85.85 0 0 0 .101 0 1 1 0 0 0 .994-.9l.7-7a.997.997 0 0 0-.895-1.095 1.002 1.002 0 0 0-1.095.895zm-11.21 0a.999.999 0 0 0-1.769-.533 1.002 1.002 0 0 0-.221.733l.7 7a.997.997 0 0 0 1 .9.85.85 0 0 0 .101 0 1 1 0 0 0 .894-1.094l-.706-7.005zm19.596-3.767-1.884 14.132A2.01 2.01 0 0 1 26.124 27H5.874a2.012 2.012 0 0 1-1.983-1.735L2.007 11.133a.999.999 0 0 1 .991-1.132h5.546l6.704-7.659a.997.997 0 0 1 1.161-.25c.129.059.245.144.339.25l6.704 7.659h5.546a1 1 0 0 1 .991 1.132zM11.204 10h9.592L16 4.519 11.204 10zm16.654 2H4.143l1.732 13h20.25l1.733-13z" style="fill:var(--color2, #0f8)"/>
    </symbol>
    <symbol id="icon-instagram" viewBox="0 0 32 32">
      <path fill="#fff" d="M21.079 4.571a6.35 6.35 0 0 1 6.35 6.35V21.08a6.35 6.35 0 0 1-6.35 6.35H10.92a6.35 6.35 0 0 1-6.35-6.35V10.921a6.35 6.35 0 0 1 6.35-6.35h10.159zM16 10.921a5.08 5.08 0 1 0 0 10.16 5.08 5.08 0 0 0 0-10.16zm0 2.539a2.54 2.54 0 1 1 0 5.08 2.54 2.54 0 0 1 0-5.08zm5.714-4.444a1.27 1.27 0 1 0 0 2.54 1.27 1.27 0 0 0 0-2.54z" style="fill:var(--color1, #fff)"/>
    </symbol>
    <symbol id="icon-linkedin" viewBox="0 0 32 32">
      <path fill="#fff" d="M24.889 4.571a2.54 2.54 0 0 1 2.54 2.54v17.778a2.54 2.54 0 0 1-2.54 2.54H7.111a2.54 2.54 0 0 1-2.54-2.54V7.111a2.54 2.54 0 0 1 2.54-2.54h17.778zm-.635 19.683v-6.73a4.14 4.14 0 0 0-4.139-4.14c-1.079 0-2.336.66-2.946 1.651v-1.41h-3.543v10.629h3.543v-6.26c0-.978.787-1.778 1.765-1.778a1.776 1.776 0 0 1 1.778 1.778v6.26h3.543zM9.498 11.632a2.132 2.132 0 0 0 2.133-2.133 2.14 2.14 0 0 0-2.133-2.146 2.149 2.149 0 0 0-2.146 2.146 2.14 2.14 0 0 0 2.146 2.133zm1.766 12.622V13.625H7.747v10.629h3.517z" style="fill:var(--color1, #fff)"/>
    </symbol>
    <symbol id="icon-location" viewBox="0 0 32 32">
      <path fill="#0f8" d="M25 13a9 9 0 1 0-18 0c0 3.692 2.954 8.504 9 14.268 6.046-5.764 9-10.576 9-14.268zm-9 17C8.666 23.334 5 17.666 5 13a11 11 0 0 1 22 0c0 4.666-3.666 10.334-11 17z" style="fill:var(--color2, #0f8)"/>
      <path fill="#0f8" d="M16 16a3.004 3.004 0 0 0 3-3 3.004 3.004 0 0 0-3-3 2.998 2.998 0 0 0-3 3 2.998 2.998 0 0 0 3 3zm0 2a4.997 4.997 0 0 1-5-5 4.997 4.997 0 0 1 5-5 4.997 4.997 0 0 1 5 5 4.997 4.997 0 0 1-5 5z" style="fill:var(--color2, #0f8)"/>
    </symbol>
    <symbol id="icon-mail" viewBox="0 0 32 32">
      <path fill="#0f8" d="M29.333 8c0-1.467-1.2-2.667-2.667-2.667H5.333A2.675 2.675 0 0 0 2.666 8v16c0 1.467 1.2 2.667 2.667 2.667h21.333c1.467 0 2.667-1.2 2.667-2.667V8zm-2.666 0L16 14.653 5.333 8h21.333zm0 16H5.334V10.667l10.667 6.667 10.667-6.667V24z" style="fill:var(--color2, #0f8)"/>
    </symbol>
    <symbol id="icon-market" viewBox="0 0 32 32">
      <path fill="#0f8" d="M27 5H5a2 2 0 0 0-2 2v18a2 2 0 0 0 2 2h22a2 2 0 0 0 2-2V7a2 2 0 0 0-2-2zm0 2v2H5V7h22zm0 18H5V11h22v14zm-5-11a5.996 5.996 0 0 1-6 6 5.996 5.996 0 0 1-6-6 .997.997 0 0 1 1-1 .997.997 0 0 1 1 1 4.003 4.003 0 0 0 4 4 4.001 4.001 0 0 0 4-4 .997.997 0 0 1 1-1 .997.997 0 0 1 1 1z" style="fill:var(--color2, #0f8)"/>
    </symbol>
    <symbol id="icon-menu" viewBox="0 0 32 32">
      <path fill="#fff" d="M4 24v-2.667h24V24H4zm0-6.667v-2.667h24v2.667H4zm0-6.666V8h24v2.667H4z" style="fill:var(--color1, #fff)"/>
    </symbol>
    <symbol id="icon-phone" viewBox="0 0 32 32">
      <path fill="#0f8" d="M8.827 14.387a20.201 20.201 0 0 0 8.787 8.787l2.933-2.933c.36-.36.893-.48 1.36-.32 1.493.493 3.107.76 4.76.76.733 0 1.333.6 1.333 1.333v4.653C28 27.4 27.4 28 26.667 28 14.147 28 4 17.853 4 5.333 4 4.6 4.6 4 5.333 4H10c.733 0 1.333.6 1.333 1.333 0 1.667.267 3.267.76 4.76.147.467.04.987-.333 1.36l-2.933 2.933z" style="fill:var(--color2, #0f8)"/>
    </symbol>
    <symbol id="icon-ux" viewBox="0 0 32 32">
      <path fill="#0f8" d="M31 11.585a1.993 1.993 0 0 0-.586-1.414l-8.585-8.586a2.005 2.005 0 0 0-2.18-.434 2 2 0 0 0-.649.434l-3.554 3.554-7.25 2.721a2.003 2.003 0 0 0-1.277 1.544L4.014 26.835a1.007 1.007 0 0 0 .223.811.998.998 0 0 0 .929.34l17.43-2.905a2.004 2.004 0 0 0 1.544-1.271l2.721-7.25L30.415 13a1.993 1.993 0 0 0 .586-1.415zm-8.734 11.524L7.915 25.5l5.921-5.921a3.5 3.5 0 1 0-1.416-1.416l-5.921 5.924L8.89 9.732l6.859-2.571 9.088 9.089-2.571 6.859zM14 16.5a1.495 1.495 0 0 1 .926-1.385 1.504 1.504 0 0 1 1.635.325 1.504 1.504 0 0 1-.227 2.308 1.5 1.5 0 0 1-2.333-1.247zm12-1.915L17.414 6l3-3L29 11.585l-3 3z" style="fill:var(--color2, #0f8)"/>
    </symbol>
  </defs>
</svg>
